<mxfile host="Electron" agent="Mozilla/5.0 (X11; Debian; Linux x86_64; rv:42.0) AppleWebKit/537.36 (KHTML, like Gecko) draw.io/25.0.2 Chrome/128.0.6613.186 Electron/32.2.5 Safari/537.36" version="25.0.2">
  <diagram name="Pagina-1" id="MrHmu9LmAlQs5nFiP2S2">
    <mxGraphModel dx="2901" dy="2013" grid="1" gridSize="10" guides="1" tooltips="1" connect="1" arrows="1" fold="1" page="1" pageScale="1" pageWidth="827" pageHeight="1169" math="0" shadow="0">
      <root>
        <mxCell id="0" />
        <mxCell id="1" parent="0" />
        <mxCell id="Mzl-ScUmHByUaf6dDR3a-2" value="LED PANEL&lt;br&gt;40x12" style="rounded=0;whiteSpace=wrap;html=1;" parent="1" vertex="1">
          <mxGeometry x="-30" y="390" width="340" height="150" as="geometry" />
        </mxCell>
        <mxCell id="Mzl-ScUmHByUaf6dDR3a-3" value="LED PANEL&lt;br&gt;40x12" style="rounded=0;whiteSpace=wrap;html=1;" parent="1" vertex="1">
          <mxGeometry x="350" y="390" width="340" height="150" as="geometry" />
        </mxCell>
        <mxCell id="Mzl-ScUmHByUaf6dDR3a-4" value="LED PANEL&lt;br&gt;40x12&lt;div&gt;&lt;br&gt;&lt;/div&gt;" style="rounded=0;whiteSpace=wrap;html=1;" parent="1" vertex="1">
          <mxGeometry x="-30" y="560" width="340" height="150" as="geometry" />
        </mxCell>
        <mxCell id="Mzl-ScUmHByUaf6dDR3a-5" value="LED PANEL&lt;br&gt;40x12" style="rounded=0;whiteSpace=wrap;html=1;" parent="1" vertex="1">
          <mxGeometry x="350" y="560" width="340" height="150" as="geometry" />
        </mxCell>
        <mxCell id="Mzl-ScUmHByUaf6dDR3a-11" style="edgeStyle=orthogonalEdgeStyle;rounded=0;orthogonalLoop=1;jettySize=auto;html=1;entryX=0;entryY=0.5;entryDx=0;entryDy=0;fillColor=#1ba1e2;strokeColor=#006EAF;exitX=0.5;exitY=1;exitDx=0;exitDy=0;strokeWidth=3;" parent="1" source="Mzl-ScUmHByUaf6dDR3a-32" target="Mzl-ScUmHByUaf6dDR3a-2" edge="1">
          <mxGeometry relative="1" as="geometry">
            <Array as="points">
              <mxPoint x="-50" y="465" />
            </Array>
          </mxGeometry>
        </mxCell>
        <mxCell id="Mzl-ScUmHByUaf6dDR3a-12" style="edgeStyle=orthogonalEdgeStyle;rounded=0;orthogonalLoop=1;jettySize=auto;html=1;fillColor=#1ba1e2;strokeColor=#006EAF;exitX=0.5;exitY=1;exitDx=0;exitDy=0;strokeWidth=3;" parent="1" source="Mzl-ScUmHByUaf6dDR3a-31" edge="1">
          <mxGeometry relative="1" as="geometry">
            <Array as="points">
              <mxPoint x="-90" y="280" />
              <mxPoint x="-90" y="630" />
            </Array>
            <mxPoint x="-30" y="630" as="targetPoint" />
          </mxGeometry>
        </mxCell>
        <mxCell id="Mzl-ScUmHByUaf6dDR3a-22" style="edgeStyle=orthogonalEdgeStyle;rounded=0;orthogonalLoop=1;jettySize=auto;html=1;entryX=0.5;entryY=0;entryDx=0;entryDy=0;strokeColor=#919191;strokeWidth=2;exitX=0.5;exitY=1;exitDx=0;exitDy=0;" parent="1" source="JtZEffLScHEYm_qtAjHp-1" target="Mzl-ScUmHByUaf6dDR3a-38" edge="1">
          <mxGeometry relative="1" as="geometry">
            <mxPoint x="615" y="210" as="targetPoint" />
            <mxPoint x="44" y="-95.96551724137908" as="sourcePoint" />
            <Array as="points">
              <mxPoint x="30" y="-90" />
              <mxPoint x="753" y="-90" />
            </Array>
          </mxGeometry>
        </mxCell>
        <mxCell id="Mzl-ScUmHByUaf6dDR3a-23" style="edgeStyle=orthogonalEdgeStyle;rounded=0;orthogonalLoop=1;jettySize=auto;html=1;exitX=0.5;exitY=1;exitDx=0;exitDy=0;entryX=0.5;entryY=0;entryDx=0;entryDy=0;strokeWidth=2;strokeColor=#919191;" parent="1" source="JtZEffLScHEYm_qtAjHp-1" target="Mzl-ScUmHByUaf6dDR3a-6" edge="1">
          <mxGeometry relative="1" as="geometry">
            <mxPoint x="16" y="-96" as="sourcePoint" />
            <Array as="points">
              <mxPoint x="30" y="-90" />
              <mxPoint x="-65" y="-90" />
            </Array>
          </mxGeometry>
        </mxCell>
        <mxCell id="Mzl-ScUmHByUaf6dDR3a-17" style="edgeStyle=orthogonalEdgeStyle;rounded=0;orthogonalLoop=1;jettySize=auto;html=1;fillColor=#1ba1e2;strokeColor=#006EAF;exitX=0.5;exitY=1;exitDx=0;exitDy=0;strokeWidth=3;entryX=1;entryY=0.5;entryDx=0;entryDy=0;" parent="1" source="Mzl-ScUmHByUaf6dDR3a-39" target="Mzl-ScUmHByUaf6dDR3a-3" edge="1">
          <mxGeometry relative="1" as="geometry">
            <mxPoint x="690" y="459" as="targetPoint" />
            <mxPoint x="670" y="327.5" as="sourcePoint" />
            <Array as="points">
              <mxPoint x="710" y="465" />
            </Array>
          </mxGeometry>
        </mxCell>
        <mxCell id="Mzl-ScUmHByUaf6dDR3a-18" style="edgeStyle=orthogonalEdgeStyle;rounded=0;orthogonalLoop=1;jettySize=auto;html=1;entryX=1.003;entryY=0.502;entryDx=0;entryDy=0;fillColor=#1ba1e2;strokeColor=#006EAF;entryPerimeter=0;exitX=0.5;exitY=1;exitDx=0;exitDy=0;strokeWidth=3;" parent="1" source="Mzl-ScUmHByUaf6dDR3a-40" target="Mzl-ScUmHByUaf6dDR3a-5" edge="1">
          <mxGeometry relative="1" as="geometry">
            <mxPoint x="670" y="342.5" as="sourcePoint" />
            <mxPoint x="694" y="630" as="targetPoint" />
            <Array as="points">
              <mxPoint x="750" y="635" />
            </Array>
          </mxGeometry>
        </mxCell>
        <mxCell id="Mzl-ScUmHByUaf6dDR3a-21" value="&lt;p style=&quot;line-height: 120%;&quot;&gt;&lt;/p&gt;&lt;div align=&quot;center&quot;&gt;ESP32-C6&lt;/div&gt;&lt;p&gt;&lt;/p&gt;" style="rounded=0;whiteSpace=wrap;html=1;align=center;verticalAlign=middle;labelPosition=center;verticalLabelPosition=middle;spacingRight=0;spacingBottom=14;" parent="1" vertex="1">
          <mxGeometry x="350" y="60" width="180" height="80" as="geometry" />
        </mxCell>
        <mxCell id="Mzl-ScUmHByUaf6dDR3a-41" style="edgeStyle=orthogonalEdgeStyle;rounded=0;orthogonalLoop=1;jettySize=auto;html=1;fontSize=10;fillColor=#e51400;strokeColor=#B20000;entryX=0.2;entryY=1;entryDx=0;entryDy=0;entryPerimeter=0;" parent="1" source="Mzl-ScUmHByUaf6dDR3a-31" target="JapYxXt7OWpUfwY7U0u8-20" edge="1">
          <mxGeometry relative="1" as="geometry">
            <mxPoint x="412" y="210" as="targetPoint" />
          </mxGeometry>
        </mxCell>
        <mxCell id="Mzl-ScUmHByUaf6dDR3a-31" value="Current&lt;br&gt;Sensor" style="rounded=0;whiteSpace=wrap;html=1;fontSize=10;fillColor=default;" parent="1" vertex="1">
          <mxGeometry x="-120" y="270" width="60" height="30" as="geometry" />
        </mxCell>
        <mxCell id="Mzl-ScUmHByUaf6dDR3a-42" style="edgeStyle=orthogonalEdgeStyle;rounded=0;orthogonalLoop=1;jettySize=auto;html=1;fontSize=10;fillColor=#e51400;strokeColor=#B20000;entryX=0.2;entryY=1;entryDx=0;entryDy=0;entryPerimeter=0;" parent="1" source="Mzl-ScUmHByUaf6dDR3a-32" target="JapYxXt7OWpUfwY7U0u8-20" edge="1">
          <mxGeometry relative="1" as="geometry">
            <mxPoint x="424" y="210" as="targetPoint" />
          </mxGeometry>
        </mxCell>
        <mxCell id="JapYxXt7OWpUfwY7U0u8-62" value="2" style="edgeLabel;html=1;align=center;verticalAlign=middle;resizable=0;points=[];" parent="Mzl-ScUmHByUaf6dDR3a-42" vertex="1" connectable="0">
          <mxGeometry x="0.922" relative="1" as="geometry">
            <mxPoint as="offset" />
          </mxGeometry>
        </mxCell>
        <mxCell id="Mzl-ScUmHByUaf6dDR3a-32" value="Current&lt;br&gt;Sensor" style="rounded=0;whiteSpace=wrap;html=1;fontSize=10;fillColor=default;" parent="1" vertex="1">
          <mxGeometry x="-80" y="310" width="60" height="30" as="geometry" />
        </mxCell>
        <mxCell id="Mzl-ScUmHByUaf6dDR3a-44" style="edgeStyle=orthogonalEdgeStyle;rounded=0;orthogonalLoop=1;jettySize=auto;html=1;fontSize=10;fillColor=#e51400;strokeColor=#B20000;entryX=0.8;entryY=1;entryDx=0;entryDy=0;exitX=0;exitY=0.5;exitDx=0;exitDy=0;entryPerimeter=0;" parent="1" source="Mzl-ScUmHByUaf6dDR3a-39" target="JapYxXt7OWpUfwY7U0u8-20" edge="1">
          <mxGeometry relative="1" as="geometry">
            <mxPoint x="448" y="210" as="targetPoint" />
          </mxGeometry>
        </mxCell>
        <mxCell id="Mzl-ScUmHByUaf6dDR3a-39" value="Current&lt;br&gt;Sensor" style="rounded=0;whiteSpace=wrap;html=1;fontSize=10;fillColor=default;" parent="1" vertex="1">
          <mxGeometry x="680" y="270" width="60" height="30" as="geometry" />
        </mxCell>
        <mxCell id="Mzl-ScUmHByUaf6dDR3a-43" style="edgeStyle=orthogonalEdgeStyle;rounded=0;orthogonalLoop=1;jettySize=auto;html=1;fontSize=10;fillColor=#e51400;strokeColor=#B20000;entryX=0.8;entryY=1;entryDx=0;entryDy=0;entryPerimeter=0;" parent="1" source="Mzl-ScUmHByUaf6dDR3a-40" target="JapYxXt7OWpUfwY7U0u8-20" edge="1">
          <mxGeometry relative="1" as="geometry">
            <mxPoint x="436" y="210" as="targetPoint" />
          </mxGeometry>
        </mxCell>
        <mxCell id="JapYxXt7OWpUfwY7U0u8-64" value="2" style="edgeLabel;html=1;align=center;verticalAlign=middle;resizable=0;points=[];" parent="Mzl-ScUmHByUaf6dDR3a-43" vertex="1" connectable="0">
          <mxGeometry x="0.7976" relative="1" as="geometry">
            <mxPoint as="offset" />
          </mxGeometry>
        </mxCell>
        <mxCell id="Mzl-ScUmHByUaf6dDR3a-40" value="Current&lt;br&gt;Sensor" style="rounded=0;whiteSpace=wrap;html=1;fontSize=10;fillColor=default;" parent="1" vertex="1">
          <mxGeometry x="720" y="310" width="60" height="30" as="geometry" />
        </mxCell>
        <mxCell id="JapYxXt7OWpUfwY7U0u8-38" style="edgeStyle=orthogonalEdgeStyle;rounded=0;orthogonalLoop=1;jettySize=auto;html=1;entryX=0.5;entryY=0;entryDx=0;entryDy=0;strokeColor=#B09500;" parent="1" source="Mzl-ScUmHByUaf6dDR3a-45" target="JapYxXt7OWpUfwY7U0u8-20" edge="1">
          <mxGeometry relative="1" as="geometry">
            <Array as="points">
              <mxPoint x="420" y="160" />
              <mxPoint x="540" y="160" />
            </Array>
          </mxGeometry>
        </mxCell>
        <mxCell id="Mzl-ScUmHByUaf6dDR3a-45" value="SPI" style="rounded=0;whiteSpace=wrap;html=1;fontSize=10;fillColor=default;points=[[0,0,0,0,0],[0,0.25,0,0,0],[0,0.5,0,0,0],[0,0.75,0,0,0],[0,1,0,0,0],[0.2,1,0,0,0],[0.25,0,0,0,0],[0.4,1,0,0,0],[0.5,0,0,0,0],[0.6,1,0,0,0],[0.75,0,0,0,0],[0.8,1,0,0,0],[1,0,0,0,0],[1,0.25,0,0,0],[1,0.5,0,0,0],[1,0.75,0,0,0],[1,1,0,0,0]];" parent="1" vertex="1">
          <mxGeometry x="360" y="110" width="70" height="20" as="geometry" />
        </mxCell>
        <mxCell id="Mzl-ScUmHByUaf6dDR3a-51" style="edgeStyle=orthogonalEdgeStyle;rounded=0;orthogonalLoop=1;jettySize=auto;html=1;entryX=0;entryY=0.75;entryDx=0;entryDy=0;fontSize=10;exitX=0.2;exitY=1;exitDx=0;exitDy=0;exitPerimeter=0;fillColor=#e3c800;strokeColor=#B09500;" parent="1" source="Mzl-ScUmHByUaf6dDR3a-46" target="Mzl-ScUmHByUaf6dDR3a-4" edge="1">
          <mxGeometry relative="1" as="geometry">
            <Array as="points">
              <mxPoint x="372" y="350" />
              <mxPoint x="-110" y="350" />
              <mxPoint x="-110" y="673" />
            </Array>
          </mxGeometry>
        </mxCell>
        <mxCell id="Mzl-ScUmHByUaf6dDR3a-52" style="edgeStyle=orthogonalEdgeStyle;rounded=0;orthogonalLoop=1;jettySize=auto;html=1;fontSize=10;exitX=0.4;exitY=1;exitDx=0;exitDy=0;exitPerimeter=0;fillColor=#e3c800;strokeColor=#B09500;entryX=0;entryY=0.75;entryDx=0;entryDy=0;" parent="1" source="Mzl-ScUmHByUaf6dDR3a-46" target="Mzl-ScUmHByUaf6dDR3a-2" edge="1">
          <mxGeometry relative="1" as="geometry">
            <mxPoint x="-20" y="425" as="targetPoint" />
            <Array as="points">
              <mxPoint x="384" y="370" />
              <mxPoint x="-70" y="370" />
              <mxPoint x="-70" y="503" />
            </Array>
          </mxGeometry>
        </mxCell>
        <mxCell id="Mzl-ScUmHByUaf6dDR3a-53" style="edgeStyle=orthogonalEdgeStyle;rounded=0;orthogonalLoop=1;jettySize=auto;html=1;exitX=0.6;exitY=1;exitDx=0;exitDy=0;exitPerimeter=0;entryX=1;entryY=0.75;entryDx=0;entryDy=0;fontSize=10;fillColor=#e3c800;strokeColor=#B09500;" parent="1" source="Mzl-ScUmHByUaf6dDR3a-46" target="Mzl-ScUmHByUaf6dDR3a-3" edge="1">
          <mxGeometry relative="1" as="geometry">
            <Array as="points">
              <mxPoint x="396" y="370" />
              <mxPoint x="730" y="370" />
              <mxPoint x="730" y="503" />
            </Array>
          </mxGeometry>
        </mxCell>
        <mxCell id="Mzl-ScUmHByUaf6dDR3a-54" style="edgeStyle=orthogonalEdgeStyle;rounded=0;orthogonalLoop=1;jettySize=auto;html=1;exitX=0.8;exitY=1;exitDx=0;exitDy=0;exitPerimeter=0;entryX=1;entryY=0.75;entryDx=0;entryDy=0;fontSize=10;fillColor=#e3c800;strokeColor=#B09500;" parent="1" source="Mzl-ScUmHByUaf6dDR3a-46" target="Mzl-ScUmHByUaf6dDR3a-5" edge="1">
          <mxGeometry relative="1" as="geometry">
            <Array as="points">
              <mxPoint x="408" y="350" />
              <mxPoint x="770" y="350" />
              <mxPoint x="770" y="673" />
            </Array>
          </mxGeometry>
        </mxCell>
        <mxCell id="Mzl-ScUmHByUaf6dDR3a-46" value="74HC125" style="rounded=0;whiteSpace=wrap;html=1;fontSize=10;fillColor=default;points=[[0,0,0,0,0],[0,0.25,0,0,0],[0,0.5,0,0,0],[0,0.75,0,0,0],[0,1,0,0,0],[0.2,0,0,0,0],[0.2,1,0,0,0],[0.4,0,0,0,0],[0.4,1,0,0,0],[0.6,0,0,0,0],[0.6,1,0,0,0],[0.8,0,0,0,0],[0.8,1,0,0,0],[1,0,0,0,0],[1,0.25,0,0,0],[1,0.5,0,0,0],[1,0.75,0,0,0],[1,1,0,0,0]];" parent="1" vertex="1">
          <mxGeometry x="360" y="170" width="60" height="20" as="geometry" />
        </mxCell>
        <mxCell id="Mzl-ScUmHByUaf6dDR3a-67" value="GPIO" style="rounded=0;whiteSpace=wrap;html=1;fontSize=10;fillColor=default;points=[[0,0,0,0,0],[0,0.25,0,0,0],[0,0.5,0,0,0],[0,0.75,0,0,0],[0,1,0,0,0],[0.2,1,0,0,0],[0.25,0,0,0,0],[0.4,1,0,0,0],[0.5,0,0,0,0],[0.6,1,0,0,0],[0.75,0,0,0,0],[0.8,1,0,0,0],[1,0,0,0,0],[1,0.25,0,0,0],[1,0.5,0,0,0],[1,0.75,0,0,0],[1,1,0,0,0]];" parent="1" vertex="1">
          <mxGeometry x="490" y="102" width="40" height="20" as="geometry" />
        </mxCell>
        <mxCell id="Mzl-ScUmHByUaf6dDR3a-76" style="edgeStyle=orthogonalEdgeStyle;rounded=0;orthogonalLoop=1;jettySize=auto;html=1;entryX=0.2;entryY=1;entryDx=0;entryDy=0;fontSize=10;fillColor=#a20025;strokeColor=#6F0000;exitX=1;exitY=0.5;exitDx=0;exitDy=0;entryPerimeter=0;" parent="1" source="Mzl-ScUmHByUaf6dDR3a-71" target="JapYxXt7OWpUfwY7U0u8-12" edge="1">
          <mxGeometry relative="1" as="geometry">
            <Array as="points">
              <mxPoint x="720" y="475" />
              <mxPoint x="720" y="380" />
              <mxPoint x="596" y="380" />
            </Array>
          </mxGeometry>
        </mxCell>
        <mxCell id="JapYxXt7OWpUfwY7U0u8-17" value="4" style="edgeLabel;html=1;align=center;verticalAlign=middle;resizable=0;points=[];" parent="Mzl-ScUmHByUaf6dDR3a-76" vertex="1" connectable="0">
          <mxGeometry x="0.8812" y="-1" relative="1" as="geometry">
            <mxPoint as="offset" />
          </mxGeometry>
        </mxCell>
        <mxCell id="Mzl-ScUmHByUaf6dDR3a-71" value="4x NTC&lt;div&gt;Temp&amp;nbsp;Sensor&lt;/div&gt;" style="rounded=0;whiteSpace=wrap;html=1;fontSize=10;fillColor=default;" parent="1" vertex="1">
          <mxGeometry x="600" y="460" width="70" height="30" as="geometry" />
        </mxCell>
        <mxCell id="Mzl-ScUmHByUaf6dDR3a-77" style="edgeStyle=orthogonalEdgeStyle;rounded=0;orthogonalLoop=1;jettySize=auto;html=1;entryX=0.8;entryY=1;entryDx=0;entryDy=0;fontSize=10;fillColor=#a20025;strokeColor=#6F0000;entryPerimeter=0;" parent="1" source="Mzl-ScUmHByUaf6dDR3a-73" target="JapYxXt7OWpUfwY7U0u8-12" edge="1">
          <mxGeometry relative="1" as="geometry">
            <Array as="points">
              <mxPoint x="760" y="655" />
              <mxPoint x="760" y="360" />
              <mxPoint x="644" y="360" />
            </Array>
          </mxGeometry>
        </mxCell>
        <mxCell id="JapYxXt7OWpUfwY7U0u8-19" value="4" style="edgeLabel;html=1;align=center;verticalAlign=middle;resizable=0;points=[];" parent="Mzl-ScUmHByUaf6dDR3a-77" vertex="1" connectable="0">
          <mxGeometry x="0.9218" relative="1" as="geometry">
            <mxPoint as="offset" />
          </mxGeometry>
        </mxCell>
        <mxCell id="Mzl-ScUmHByUaf6dDR3a-73" value="4x NTC&lt;div&gt;Temp&amp;nbsp;Sensor&lt;/div&gt;" style="rounded=0;whiteSpace=wrap;html=1;fontSize=10;fillColor=default;" parent="1" vertex="1">
          <mxGeometry x="600" y="640" width="70" height="30" as="geometry" />
        </mxCell>
        <mxCell id="Mzl-ScUmHByUaf6dDR3a-78" style="edgeStyle=orthogonalEdgeStyle;rounded=0;orthogonalLoop=1;jettySize=auto;html=1;entryX=0.8;entryY=1;entryDx=0;entryDy=0;fontSize=10;fillColor=#a20025;strokeColor=#6F0000;entryPerimeter=0;exitX=0;exitY=0.5;exitDx=0;exitDy=0;" parent="1" source="JapYxXt7OWpUfwY7U0u8-1" target="JapYxXt7OWpUfwY7U0u8-21" edge="1">
          <mxGeometry relative="1" as="geometry">
            <mxPoint x="130" y="505" as="sourcePoint" />
            <mxPoint x="374.1500000000001" y="127" as="targetPoint" />
            <Array as="points">
              <mxPoint x="-60" y="485" />
              <mxPoint x="-60" y="380" />
              <mxPoint x="484" y="380" />
            </Array>
          </mxGeometry>
        </mxCell>
        <mxCell id="JapYxXt7OWpUfwY7U0u8-28" value="4" style="edgeLabel;html=1;align=center;verticalAlign=middle;resizable=0;points=[];" parent="Mzl-ScUmHByUaf6dDR3a-78" vertex="1" connectable="0">
          <mxGeometry x="0.9382" relative="1" as="geometry">
            <mxPoint as="offset" />
          </mxGeometry>
        </mxCell>
        <mxCell id="Mzl-ScUmHByUaf6dDR3a-79" style="edgeStyle=orthogonalEdgeStyle;rounded=0;orthogonalLoop=1;jettySize=auto;html=1;entryX=0.2;entryY=1;entryDx=0;entryDy=0;fontSize=10;fillColor=#a20025;strokeColor=#6F0000;exitX=0;exitY=0.5;exitDx=0;exitDy=0;entryPerimeter=0;" parent="1" source="JapYxXt7OWpUfwY7U0u8-2" target="JapYxXt7OWpUfwY7U0u8-21" edge="1">
          <mxGeometry relative="1" as="geometry">
            <mxPoint x="130" y="675" as="sourcePoint" />
            <mxPoint x="375" y="130" as="targetPoint" />
            <Array as="points">
              <mxPoint x="5" y="665" />
              <mxPoint x="5" y="660" />
              <mxPoint x="-100" y="660" />
              <mxPoint x="-100" y="360" />
              <mxPoint x="436" y="360" />
            </Array>
          </mxGeometry>
        </mxCell>
        <mxCell id="JapYxXt7OWpUfwY7U0u8-26" value="4" style="edgeLabel;html=1;align=center;verticalAlign=middle;resizable=0;points=[];" parent="Mzl-ScUmHByUaf6dDR3a-79" vertex="1" connectable="0">
          <mxGeometry x="0.9554" y="2" relative="1" as="geometry">
            <mxPoint as="offset" />
          </mxGeometry>
        </mxCell>
        <mxCell id="JapYxXt7OWpUfwY7U0u8-1" value="4x NTC&lt;div&gt;Temp&amp;nbsp;Sensor&lt;/div&gt;" style="rounded=0;whiteSpace=wrap;html=1;fontSize=10;fillColor=default;" parent="1" vertex="1">
          <mxGeometry x="-5" y="470" width="70" height="30" as="geometry" />
        </mxCell>
        <mxCell id="JapYxXt7OWpUfwY7U0u8-2" value="4x NTC&lt;div&gt;Temp&amp;nbsp;Sensor&lt;/div&gt;" style="rounded=0;whiteSpace=wrap;html=1;fontSize=10;fillColor=default;" parent="1" vertex="1">
          <mxGeometry x="-5" y="650" width="75" height="30" as="geometry" />
        </mxCell>
        <mxCell id="JapYxXt7OWpUfwY7U0u8-9" value="" style="endArrow=none;html=1;rounded=0;strokeWidth=4;dashed=1;dashPattern=1 2;" parent="1" edge="1">
          <mxGeometry width="50" height="50" relative="1" as="geometry">
            <mxPoint x="-140" y="550" as="sourcePoint" />
            <mxPoint x="800" y="550" as="targetPoint" />
          </mxGeometry>
        </mxCell>
        <mxCell id="JapYxXt7OWpUfwY7U0u8-12" value="&lt;div&gt;MCP3208&lt;br&gt;&lt;/div&gt;ADC 3" style="rounded=0;whiteSpace=wrap;html=1;fontSize=10;fillColor=default;points=[[0,0,0,0,0],[0,0.25,0,0,0],[0,0.5,0,0,0],[0,0.75,0,0,0],[0,1,0,0,0],[0.2,1,0,0,0],[0.25,0,0,0,0],[0.4,1,0,0,0],[0.5,0,0,0,0],[0.6,1,0,0,0],[0.75,0,0,0,0],[0.8,1,0,0,0],[1,0,0,0,0],[1,0.25,0,0,0],[1,0.5,0,0,0],[1,0.75,0,0,0],[1,1,0,0,0]];" parent="1" vertex="1">
          <mxGeometry x="580" y="200" width="80" height="30" as="geometry" />
        </mxCell>
        <mxCell id="JapYxXt7OWpUfwY7U0u8-15" style="edgeStyle=orthogonalEdgeStyle;rounded=0;orthogonalLoop=1;jettySize=auto;html=1;strokeWidth=3;strokeColor=#006EAF;entryX=0.5;entryY=0;entryDx=0;entryDy=0;" parent="1" source="Mzl-ScUmHByUaf6dDR3a-38" target="Mzl-ScUmHByUaf6dDR3a-39" edge="1">
          <mxGeometry relative="1" as="geometry">
            <Array as="points">
              <mxPoint x="710" y="200" />
              <mxPoint x="710" y="200" />
            </Array>
          </mxGeometry>
        </mxCell>
        <mxCell id="JapYxXt7OWpUfwY7U0u8-74" value="+12V" style="edgeLabel;html=1;align=center;verticalAlign=middle;resizable=0;points=[];" parent="JapYxXt7OWpUfwY7U0u8-15" vertex="1" connectable="0">
          <mxGeometry x="-0.8818" y="1" relative="1" as="geometry">
            <mxPoint as="offset" />
          </mxGeometry>
        </mxCell>
        <mxCell id="JapYxXt7OWpUfwY7U0u8-16" style="edgeStyle=orthogonalEdgeStyle;rounded=0;orthogonalLoop=1;jettySize=auto;html=1;strokeWidth=3;strokeColor=#006EAF;" parent="1" source="Mzl-ScUmHByUaf6dDR3a-38" target="Mzl-ScUmHByUaf6dDR3a-40" edge="1">
          <mxGeometry relative="1" as="geometry">
            <Array as="points">
              <mxPoint x="750" y="190" />
              <mxPoint x="750" y="190" />
            </Array>
          </mxGeometry>
        </mxCell>
        <mxCell id="JapYxXt7OWpUfwY7U0u8-75" value="+12V" style="edgeLabel;html=1;align=center;verticalAlign=middle;resizable=0;points=[];" parent="JapYxXt7OWpUfwY7U0u8-16" vertex="1" connectable="0">
          <mxGeometry x="-0.9026" relative="1" as="geometry">
            <mxPoint as="offset" />
          </mxGeometry>
        </mxCell>
        <mxCell id="JapYxXt7OWpUfwY7U0u8-20" value="&lt;div&gt;MCP3208&lt;br&gt;&lt;/div&gt;ADC 2" style="rounded=0;whiteSpace=wrap;html=1;fontSize=10;fillColor=default;points=[[0,0,0,0,0],[0,0.25,0,0,0],[0,0.5,0,0,0],[0,0.75,0,0,0],[0,1,0,0,0],[0.2,1,0,0,0],[0.25,0,0,0,0],[0.4,1,0,0,0],[0.5,0,0,0,0],[0.6,1,0,0,0],[0.75,0,0,0,0],[0.8,1,0,0,0],[1,0,0,0,0],[1,0.25,0,0,0],[1,0.5,0,0,0],[1,0.75,0,0,0],[1,1,0,0,0]];" parent="1" vertex="1">
          <mxGeometry x="500" y="200" width="80" height="30" as="geometry" />
        </mxCell>
        <mxCell id="JapYxXt7OWpUfwY7U0u8-21" value="&lt;div&gt;MCP3208&lt;/div&gt;ADC 1" style="rounded=0;whiteSpace=wrap;html=1;fontSize=10;fillColor=default;points=[[0,0,0,0,0],[0,0.25,0,0,0],[0,0.5,0,0,0],[0,0.75,0,0,0],[0,1,0,0,0],[0.2,1,0,0,0],[0.25,0,0,0,0],[0.4,1,0,0,0],[0.5,0,0,0,0],[0.6,1,0,0,0],[0.75,0,0,0,0],[0.8,1,0,0,0],[1,0,0,0,0],[1,0.25,0,0,0],[1,0.5,0,0,0],[1,0.75,0,0,0],[1,1,0,0,0]];" parent="1" vertex="1">
          <mxGeometry x="420" y="200" width="80" height="30" as="geometry" />
        </mxCell>
        <mxCell id="JapYxXt7OWpUfwY7U0u8-31" value="" style="endArrow=none;html=1;rounded=0;strokeWidth=4;dashed=1;dashPattern=1 2;" parent="1" edge="1">
          <mxGeometry width="50" height="50" relative="1" as="geometry">
            <mxPoint x="330" y="-180" as="sourcePoint" />
            <mxPoint x="330" y="730" as="targetPoint" />
          </mxGeometry>
        </mxCell>
        <mxCell id="JapYxXt7OWpUfwY7U0u8-32" style="edgeStyle=orthogonalEdgeStyle;rounded=0;orthogonalLoop=1;jettySize=auto;html=1;entryX=0.8;entryY=0;entryDx=0;entryDy=0;entryPerimeter=0;strokeColor=#B09500;" parent="1" source="Mzl-ScUmHByUaf6dDR3a-45" target="Mzl-ScUmHByUaf6dDR3a-46" edge="1">
          <mxGeometry relative="1" as="geometry">
            <Array as="points">
              <mxPoint x="408" y="130" />
              <mxPoint x="408" y="130" />
            </Array>
          </mxGeometry>
        </mxCell>
        <mxCell id="JapYxXt7OWpUfwY7U0u8-33" style="edgeStyle=orthogonalEdgeStyle;rounded=0;orthogonalLoop=1;jettySize=auto;html=1;entryX=0.6;entryY=0;entryDx=0;entryDy=0;entryPerimeter=0;strokeColor=#B09500;" parent="1" source="Mzl-ScUmHByUaf6dDR3a-45" target="Mzl-ScUmHByUaf6dDR3a-46" edge="1">
          <mxGeometry relative="1" as="geometry">
            <Array as="points">
              <mxPoint x="400" y="120" />
              <mxPoint x="400" y="120" />
            </Array>
          </mxGeometry>
        </mxCell>
        <mxCell id="JapYxXt7OWpUfwY7U0u8-34" style="edgeStyle=orthogonalEdgeStyle;rounded=0;orthogonalLoop=1;jettySize=auto;html=1;entryX=0.4;entryY=0;entryDx=0;entryDy=0;entryPerimeter=0;strokeColor=#B09500;" parent="1" source="Mzl-ScUmHByUaf6dDR3a-45" target="Mzl-ScUmHByUaf6dDR3a-46" edge="1">
          <mxGeometry relative="1" as="geometry">
            <Array as="points">
              <mxPoint x="384" y="140" />
              <mxPoint x="384" y="140" />
            </Array>
          </mxGeometry>
        </mxCell>
        <mxCell id="JapYxXt7OWpUfwY7U0u8-35" style="edgeStyle=orthogonalEdgeStyle;rounded=0;orthogonalLoop=1;jettySize=auto;html=1;entryX=0.2;entryY=0;entryDx=0;entryDy=0;entryPerimeter=0;strokeColor=#B09500;" parent="1" source="Mzl-ScUmHByUaf6dDR3a-45" target="Mzl-ScUmHByUaf6dDR3a-46" edge="1">
          <mxGeometry relative="1" as="geometry">
            <Array as="points">
              <mxPoint x="372" y="140" />
              <mxPoint x="372" y="140" />
            </Array>
          </mxGeometry>
        </mxCell>
        <mxCell id="JapYxXt7OWpUfwY7U0u8-44" value="+5V" style="edgeStyle=orthogonalEdgeStyle;rounded=0;orthogonalLoop=1;jettySize=auto;html=1;strokeWidth=2;strokeColor=#FF2970;entryX=0.5;entryY=0;entryDx=0;entryDy=0;" parent="1" source="JapYxXt7OWpUfwY7U0u8-36" target="Mzl-ScUmHByUaf6dDR3a-21" edge="1">
          <mxGeometry relative="1" as="geometry">
            <mxPoint x="350" y="60" as="targetPoint" />
            <Array as="points">
              <mxPoint x="125" y="40" />
              <mxPoint x="440" y="40" />
            </Array>
          </mxGeometry>
        </mxCell>
        <mxCell id="Oz96-j3cMT1TWrcF2Vx5-2" style="edgeStyle=orthogonalEdgeStyle;rounded=0;orthogonalLoop=1;jettySize=auto;html=1;entryX=0.5;entryY=1;entryDx=0;entryDy=0;strokeColor=#FF2970;strokeWidth=2;" parent="1" source="JapYxXt7OWpUfwY7U0u8-36" target="Oz96-j3cMT1TWrcF2Vx5-1" edge="1">
          <mxGeometry relative="1" as="geometry">
            <Array as="points">
              <mxPoint x="125" y="25" />
              <mxPoint x="440" y="25" />
            </Array>
          </mxGeometry>
        </mxCell>
        <mxCell id="Oz96-j3cMT1TWrcF2Vx5-4" value="+5V" style="edgeLabel;html=1;align=center;verticalAlign=middle;resizable=0;points=[];" parent="Oz96-j3cMT1TWrcF2Vx5-2" vertex="1" connectable="0">
          <mxGeometry x="-0.6494" y="-1" relative="1" as="geometry">
            <mxPoint x="113" as="offset" />
          </mxGeometry>
        </mxCell>
        <mxCell id="JapYxXt7OWpUfwY7U0u8-36" value="HDR-15-5" style="rounded=0;whiteSpace=wrap;html=1;" parent="1" vertex="1">
          <mxGeometry x="70" y="-50" width="110" height="30" as="geometry" />
        </mxCell>
        <mxCell id="JapYxXt7OWpUfwY7U0u8-37" style="edgeStyle=orthogonalEdgeStyle;rounded=0;orthogonalLoop=1;jettySize=auto;html=1;entryX=0.5;entryY=0;entryDx=0;entryDy=0;entryPerimeter=0;strokeColor=#B09500;" parent="1" source="Mzl-ScUmHByUaf6dDR3a-45" target="JapYxXt7OWpUfwY7U0u8-21" edge="1">
          <mxGeometry relative="1" as="geometry">
            <Array as="points">
              <mxPoint x="420" y="160" />
              <mxPoint x="460" y="160" />
            </Array>
          </mxGeometry>
        </mxCell>
        <mxCell id="JapYxXt7OWpUfwY7U0u8-39" style="edgeStyle=orthogonalEdgeStyle;rounded=0;orthogonalLoop=1;jettySize=auto;html=1;entryX=0.5;entryY=0;entryDx=0;entryDy=0;entryPerimeter=0;strokeColor=#B09500;" parent="1" source="Mzl-ScUmHByUaf6dDR3a-45" target="JapYxXt7OWpUfwY7U0u8-12" edge="1">
          <mxGeometry relative="1" as="geometry">
            <Array as="points">
              <mxPoint x="420" y="160" />
              <mxPoint x="620" y="160" />
            </Array>
          </mxGeometry>
        </mxCell>
        <mxCell id="JapYxXt7OWpUfwY7U0u8-46" style="edgeStyle=orthogonalEdgeStyle;rounded=0;orthogonalLoop=1;jettySize=auto;html=1;strokeWidth=3;strokeColor=#006EAF;" parent="1" source="Mzl-ScUmHByUaf6dDR3a-6" target="Mzl-ScUmHByUaf6dDR3a-31" edge="1">
          <mxGeometry relative="1" as="geometry">
            <Array as="points">
              <mxPoint x="-90" y="50" />
              <mxPoint x="-90" y="50" />
            </Array>
          </mxGeometry>
        </mxCell>
        <mxCell id="JapYxXt7OWpUfwY7U0u8-70" value="+12V" style="edgeLabel;html=1;align=center;verticalAlign=middle;resizable=0;points=[];" parent="JapYxXt7OWpUfwY7U0u8-46" vertex="1" connectable="0">
          <mxGeometry x="-0.8917" relative="1" as="geometry">
            <mxPoint as="offset" />
          </mxGeometry>
        </mxCell>
        <mxCell id="JapYxXt7OWpUfwY7U0u8-47" style="edgeStyle=orthogonalEdgeStyle;rounded=0;orthogonalLoop=1;jettySize=auto;html=1;entryX=0.5;entryY=0;entryDx=0;entryDy=0;strokeWidth=3;strokeColor=#006EAF;" parent="1" source="Mzl-ScUmHByUaf6dDR3a-6" target="Mzl-ScUmHByUaf6dDR3a-32" edge="1">
          <mxGeometry relative="1" as="geometry">
            <Array as="points">
              <mxPoint x="-50" y="60" />
              <mxPoint x="-50" y="60" />
            </Array>
          </mxGeometry>
        </mxCell>
        <mxCell id="JapYxXt7OWpUfwY7U0u8-71" value="+12V" style="edgeLabel;html=1;align=center;verticalAlign=middle;resizable=0;points=[];" parent="JapYxXt7OWpUfwY7U0u8-47" vertex="1" connectable="0">
          <mxGeometry x="-0.9027" relative="1" as="geometry">
            <mxPoint as="offset" />
          </mxGeometry>
        </mxCell>
        <mxCell id="JapYxXt7OWpUfwY7U0u8-48" value="GPIO" style="rounded=0;whiteSpace=wrap;html=1;fontSize=10;fillColor=default;points=[[0,0,0,0,0],[0,0.25,0,0,0],[0,0.5,0,0,0],[0,0.75,0,0,0],[0,1,0,0,0],[0.2,1,0,0,0],[0.25,0,0,0,0],[0.4,1,0,0,0],[0.5,0,0,0,0],[0.6,1,0,0,0],[0.75,0,0,0,0],[0.8,1,0,0,0],[1,0,0,0,0],[1,0.25,0,0,0],[1,0.5,0,0,0],[1,0.75,0,0,0],[1,1,0,0,0]];" parent="1" vertex="1">
          <mxGeometry x="350" y="82" width="40" height="20" as="geometry" />
        </mxCell>
        <mxCell id="JapYxXt7OWpUfwY7U0u8-49" style="edgeStyle=orthogonalEdgeStyle;rounded=0;orthogonalLoop=1;jettySize=auto;html=1;entryX=1;entryY=0.5;entryDx=0;entryDy=0;entryPerimeter=0;strokeColor=#009900;exitX=0.5;exitY=1;exitDx=0;exitDy=0;" parent="1" source="Mzl-ScUmHByUaf6dDR3a-80" target="Mzl-ScUmHByUaf6dDR3a-67" edge="1">
          <mxGeometry relative="1" as="geometry">
            <mxPoint x="660" as="sourcePoint" />
            <Array as="points">
              <mxPoint x="664" y="80" />
              <mxPoint x="664" y="80" />
              <mxPoint x="664" y="112" />
            </Array>
          </mxGeometry>
        </mxCell>
        <mxCell id="JapYxXt7OWpUfwY7U0u8-50" style="edgeStyle=orthogonalEdgeStyle;rounded=0;orthogonalLoop=1;jettySize=auto;html=1;entryX=0;entryY=0.5;entryDx=0;entryDy=0;entryPerimeter=0;strokeColor=#00994D;exitX=0.5;exitY=1;exitDx=0;exitDy=0;" parent="1" source="Mzl-ScUmHByUaf6dDR3a-81" target="JapYxXt7OWpUfwY7U0u8-48" edge="1">
          <mxGeometry relative="1" as="geometry">
            <Array as="points">
              <mxPoint x="24" y="92" />
            </Array>
          </mxGeometry>
        </mxCell>
        <mxCell id="JapYxXt7OWpUfwY7U0u8-52" value="" style="group" parent="1" vertex="1" connectable="0">
          <mxGeometry x="-120" y="-50" width="153.5" height="30" as="geometry" />
        </mxCell>
        <mxCell id="Mzl-ScUmHByUaf6dDR3a-6" value="LSP-160-12T " style="rounded=0;whiteSpace=wrap;html=1;" parent="JapYxXt7OWpUfwY7U0u8-52" vertex="1">
          <mxGeometry width="110" height="30" as="geometry" />
        </mxCell>
        <mxCell id="Mzl-ScUmHByUaf6dDR3a-81" value="&lt;font style=&quot;font-size: 9px;&quot;&gt;DC&lt;br&gt;OK&lt;/font&gt;" style="rounded=0;whiteSpace=wrap;html=1;fontSize=10;fillColor=default;" parent="JapYxXt7OWpUfwY7U0u8-52" vertex="1">
          <mxGeometry x="133.5" width="20" height="30" as="geometry" />
        </mxCell>
        <mxCell id="JapYxXt7OWpUfwY7U0u8-51" value="&lt;font size=&quot;1&quot;&gt;NTC&lt;/font&gt;" style="rounded=0;whiteSpace=wrap;html=1;fontSize=10;fillColor=default;" parent="JapYxXt7OWpUfwY7U0u8-52" vertex="1">
          <mxGeometry x="110" width="23.5" height="30" as="geometry" />
        </mxCell>
        <mxCell id="JapYxXt7OWpUfwY7U0u8-55" value="" style="group" parent="1" vertex="1" connectable="0">
          <mxGeometry x="653.5" y="-50" width="156.5" height="30" as="geometry" />
        </mxCell>
        <mxCell id="Mzl-ScUmHByUaf6dDR3a-38" value="LSP-160-12T " style="rounded=0;whiteSpace=wrap;html=1;" parent="JapYxXt7OWpUfwY7U0u8-55" vertex="1">
          <mxGeometry x="43.5" width="113" height="30" as="geometry" />
        </mxCell>
        <mxCell id="JapYxXt7OWpUfwY7U0u8-53" value="&lt;font size=&quot;1&quot;&gt;NTC&lt;/font&gt;" style="rounded=0;whiteSpace=wrap;html=1;fontSize=10;fillColor=default;" parent="JapYxXt7OWpUfwY7U0u8-55" vertex="1">
          <mxGeometry x="20" width="23.5" height="30" as="geometry" />
        </mxCell>
        <mxCell id="Mzl-ScUmHByUaf6dDR3a-80" value="&lt;font style=&quot;font-size: 9px;&quot;&gt;DC&lt;br&gt;OK&lt;/font&gt;" style="rounded=0;whiteSpace=wrap;html=1;fontSize=10;fillColor=default;" parent="JapYxXt7OWpUfwY7U0u8-55" vertex="1">
          <mxGeometry width="20" height="30" as="geometry" />
        </mxCell>
        <mxCell id="JapYxXt7OWpUfwY7U0u8-60" value="Photo&lt;div&gt;Resistor&lt;/div&gt;" style="rounded=0;whiteSpace=wrap;html=1;" parent="1" vertex="1">
          <mxGeometry x="-5" y="410" width="70" height="30" as="geometry" />
        </mxCell>
        <mxCell id="JapYxXt7OWpUfwY7U0u8-61" value="Photo&lt;div&gt;Resistor&lt;/div&gt;" style="rounded=0;whiteSpace=wrap;html=1;" parent="1" vertex="1">
          <mxGeometry x="600" y="410" width="70" height="30" as="geometry" />
        </mxCell>
        <mxCell id="JapYxXt7OWpUfwY7U0u8-57" style="edgeStyle=orthogonalEdgeStyle;rounded=0;orthogonalLoop=1;jettySize=auto;html=1;entryX=0.4;entryY=1;entryDx=0;entryDy=0;entryPerimeter=0;strokeColor=#6F0000;" parent="1" source="JapYxXt7OWpUfwY7U0u8-51" target="JapYxXt7OWpUfwY7U0u8-20" edge="1">
          <mxGeometry relative="1" as="geometry">
            <mxPoint x="510" y="320" as="targetPoint" />
            <Array as="points">
              <mxPoint x="2" y="300" />
              <mxPoint x="532" y="300" />
            </Array>
          </mxGeometry>
        </mxCell>
        <mxCell id="JapYxXt7OWpUfwY7U0u8-56" style="edgeStyle=orthogonalEdgeStyle;rounded=0;orthogonalLoop=1;jettySize=auto;html=1;entryX=0.4;entryY=1;entryDx=0;entryDy=0;entryPerimeter=0;strokeColor=#6F0000;" parent="1" source="JapYxXt7OWpUfwY7U0u8-53" target="JapYxXt7OWpUfwY7U0u8-20" edge="1">
          <mxGeometry relative="1" as="geometry">
            <mxPoint x="685.25" y="262.5531914893617" as="targetPoint" />
            <Array as="points">
              <mxPoint x="685" y="140" />
              <mxPoint x="670" y="140" />
              <mxPoint x="670" y="300" />
              <mxPoint x="532" y="300" />
            </Array>
          </mxGeometry>
        </mxCell>
        <mxCell id="JapYxXt7OWpUfwY7U0u8-69" value="2" style="edgeLabel;html=1;align=center;verticalAlign=middle;resizable=0;points=[];" parent="JapYxXt7OWpUfwY7U0u8-56" vertex="1" connectable="0">
          <mxGeometry x="0.9111" relative="1" as="geometry">
            <mxPoint as="offset" />
          </mxGeometry>
        </mxCell>
        <mxCell id="JapYxXt7OWpUfwY7U0u8-66" style="edgeStyle=orthogonalEdgeStyle;rounded=0;orthogonalLoop=1;jettySize=auto;html=1;entryX=0.6;entryY=1;entryDx=0;entryDy=0;entryPerimeter=0;strokeColor=#CC00CC;" parent="1" source="JapYxXt7OWpUfwY7U0u8-60" target="JapYxXt7OWpUfwY7U0u8-20" edge="1">
          <mxGeometry relative="1" as="geometry">
            <Array as="points">
              <mxPoint x="30" y="340" />
              <mxPoint x="548" y="340" />
            </Array>
          </mxGeometry>
        </mxCell>
        <mxCell id="JapYxXt7OWpUfwY7U0u8-67" style="edgeStyle=orthogonalEdgeStyle;rounded=0;orthogonalLoop=1;jettySize=auto;html=1;entryX=0.6;entryY=1;entryDx=0;entryDy=0;entryPerimeter=0;strokeColor=#CC00CC;" parent="1" source="JapYxXt7OWpUfwY7U0u8-61" target="JapYxXt7OWpUfwY7U0u8-20" edge="1">
          <mxGeometry relative="1" as="geometry">
            <Array as="points">
              <mxPoint x="635" y="340" />
              <mxPoint x="548" y="340" />
            </Array>
          </mxGeometry>
        </mxCell>
        <mxCell id="JapYxXt7OWpUfwY7U0u8-68" value="2" style="edgeLabel;html=1;align=center;verticalAlign=middle;resizable=0;points=[];" parent="JapYxXt7OWpUfwY7U0u8-67" vertex="1" connectable="0">
          <mxGeometry x="0.8146" relative="1" as="geometry">
            <mxPoint as="offset" />
          </mxGeometry>
        </mxCell>
        <mxCell id="JapYxXt7OWpUfwY7U0u8-72" value="" style="endArrow=classic;html=1;rounded=0;entryX=0.5;entryY=0;entryDx=0;entryDy=0;strokeWidth=2;strokeColor=#919191;" parent="1" target="JapYxXt7OWpUfwY7U0u8-36" edge="1">
          <mxGeometry width="50" height="50" relative="1" as="geometry">
            <mxPoint x="30" y="-190" as="sourcePoint" />
            <mxPoint x="30" y="-110" as="targetPoint" />
            <Array as="points">
              <mxPoint x="30" y="-90" />
              <mxPoint x="125" y="-90" />
            </Array>
          </mxGeometry>
        </mxCell>
        <mxCell id="JapYxXt7OWpUfwY7U0u8-73" value="230V" style="edgeLabel;html=1;align=center;verticalAlign=middle;resizable=0;points=[];" parent="JapYxXt7OWpUfwY7U0u8-72" vertex="1" connectable="0">
          <mxGeometry x="-0.3506" relative="1" as="geometry">
            <mxPoint y="-16" as="offset" />
          </mxGeometry>
        </mxCell>
        <mxCell id="Oz96-j3cMT1TWrcF2Vx5-1" value="Raspberry Pi 4" style="rounded=0;whiteSpace=wrap;html=1;align=center;verticalAlign=middle;labelPosition=center;verticalLabelPosition=middle;spacingRight=0;spacingBottom=14;" parent="1" vertex="1">
          <mxGeometry x="350" y="-75" width="180" height="80" as="geometry" />
        </mxCell>
        <mxCell id="Oz96-j3cMT1TWrcF2Vx5-8" style="edgeStyle=orthogonalEdgeStyle;rounded=0;orthogonalLoop=1;jettySize=auto;html=1;entryX=0.5;entryY=1;entryDx=0;entryDy=0;entryPerimeter=0;strokeColor=#000066;" parent="1" source="Oz96-j3cMT1TWrcF2Vx5-5" target="Oz96-j3cMT1TWrcF2Vx5-10" edge="1">
          <mxGeometry relative="1" as="geometry">
            <mxPoint x="620" y="-80" as="targetPoint" />
          </mxGeometry>
        </mxCell>
        <mxCell id="Oz96-j3cMT1TWrcF2Vx5-5" value="USB" style="rounded=0;whiteSpace=wrap;html=1;fontSize=10;fillColor=default;points=[[0,0,0,0,0],[0,0.25,0,0,0],[0,0.5,0,0,0],[0,0.75,0,0,0],[0,1,0,0,0],[0.2,1,0,0,0],[0.25,0,0,0,0],[0.4,1,0,0,0],[0.5,0,0,0,0],[0.6,1,0,0,0],[0.75,0,0,0,0],[0.8,1,0,0,0],[1,0,0,0,0],[1,0.25,0,0,0],[1,0.5,0,0,0],[1,0.75,0,0,0],[1,1,0,0,0]];" parent="1" vertex="1">
          <mxGeometry x="490" y="70" width="40" height="20" as="geometry" />
        </mxCell>
        <mxCell id="Oz96-j3cMT1TWrcF2Vx5-7" style="edgeStyle=orthogonalEdgeStyle;rounded=0;orthogonalLoop=1;jettySize=auto;html=1;entryX=0.5;entryY=1;entryDx=0;entryDy=0;entryPerimeter=0;strokeColor=#000066;" parent="1" source="Oz96-j3cMT1TWrcF2Vx5-6" target="Oz96-j3cMT1TWrcF2Vx5-9" edge="1">
          <mxGeometry relative="1" as="geometry">
            <mxPoint x="570" y="-80" as="targetPoint" />
            <Array as="points">
              <mxPoint x="565" y="-20" />
            </Array>
          </mxGeometry>
        </mxCell>
        <mxCell id="Oz96-j3cMT1TWrcF2Vx5-6" value="USB" style="rounded=0;whiteSpace=wrap;html=1;fontSize=10;fillColor=default;points=[[0,0,0,0,0],[0,0.25,0,0,0],[0,0.5,0,0,0],[0,0.75,0,0,0],[0,1,0,0,0],[0.2,1,0,0,0],[0.25,0,0,0,0],[0.4,1,0,0,0],[0.5,0,0,0,0],[0.6,1,0,0,0],[0.75,0,0,0,0],[0.8,1,0,0,0],[1,0,0,0,0],[1,0.25,0,0,0],[1,0.5,0,0,0],[1,0.75,0,0,0],[1,1,0,0,0]];" parent="1" vertex="1">
          <mxGeometry x="490" y="-30" width="40" height="20" as="geometry" />
        </mxCell>
        <mxCell id="Oz96-j3cMT1TWrcF2Vx5-9" value="USB-C&lt;div&gt;Female&lt;/div&gt;" style="rounded=0;whiteSpace=wrap;html=1;fontSize=10;fillColor=default;points=[[0,0,0,0,0],[0,0.25,0,0,0],[0,0.5,0,0,0],[0,0.75,0,0,0],[0,1,0,0,0],[0.25,0,0,0,0],[0.5,0,0,0,0],[0.5,1,0,0,0],[0.75,0,0,0,0],[1,0,0,0,0],[1,0.25,0,0,0],[1,0.5,0,0,0],[1,0.75,0,0,0],[1,1,0,0,0]];" parent="1" vertex="1">
          <mxGeometry x="540" y="-140" width="50" height="30" as="geometry" />
        </mxCell>
        <mxCell id="Oz96-j3cMT1TWrcF2Vx5-10" value="USB-C&lt;div&gt;Female&lt;/div&gt;" style="rounded=0;whiteSpace=wrap;html=1;fontSize=10;fillColor=default;points=[[0,0,0,0,0],[0,0.25,0,0,0],[0,0.5,0,0,0],[0,0.75,0,0,0],[0,1,0,0,0],[0.25,0,0,0,0],[0.5,0,0,0,0],[0.5,1,0,0,0],[0.75,0,0,0,0],[1,0,0,0,0],[1,0.25,0,0,0],[1,0.5,0,0,0],[1,0.75,0,0,0],[1,1,0,0,0]];" parent="1" vertex="1">
          <mxGeometry x="600" y="-140" width="50" height="30" as="geometry" />
        </mxCell>
        <mxCell id="Oz96-j3cMT1TWrcF2Vx5-14" value="" style="endArrow=none;html=1;rounded=0;strokeWidth=4;dashed=1;dashPattern=1 2;" parent="1" edge="1">
          <mxGeometry width="50" height="50" relative="1" as="geometry">
            <mxPoint x="-140" y="-160" as="sourcePoint" />
            <mxPoint x="840" y="-160" as="targetPoint" />
          </mxGeometry>
        </mxCell>
        <mxCell id="Oz96-j3cMT1TWrcF2Vx5-15" style="edgeStyle=orthogonalEdgeStyle;rounded=0;orthogonalLoop=1;jettySize=auto;html=1;entryX=0.5;entryY=0;entryDx=0;entryDy=0;entryPerimeter=0;strokeColor=#808080;startArrow=classic;startFill=1;" parent="1" source="Oz96-j3cMT1TWrcF2Vx5-9" target="Oz96-j3cMT1TWrcF2Vx5-10" edge="1">
          <mxGeometry relative="1" as="geometry">
            <Array as="points">
              <mxPoint x="565" y="-190" />
              <mxPoint x="625" y="-190" />
            </Array>
          </mxGeometry>
        </mxCell>
        <mxCell id="Oz96-j3cMT1TWrcF2Vx5-17" value="USB&lt;div&gt;Cable&lt;/div&gt;" style="edgeLabel;html=1;align=center;verticalAlign=middle;resizable=0;points=[];" parent="Oz96-j3cMT1TWrcF2Vx5-15" vertex="1" connectable="0">
          <mxGeometry x="0.0042" relative="1" as="geometry">
            <mxPoint as="offset" />
          </mxGeometry>
        </mxCell>
        <mxCell id="JtZEffLScHEYm_qtAjHp-1" value="" style="shape=image;html=1;verticalAlign=top;verticalLabelPosition=bottom;labelBackgroundColor=#ffffff;imageAspect=0;aspect=fixed;image=https://cdn1.iconfinder.com/data/icons/bootstrap-vol-3/16/outlet-128.png" parent="1" vertex="1">
          <mxGeometry x="16" y="-220" width="28" height="28" as="geometry" />
        </mxCell>
      </root>
    </mxGraphModel>
  </diagram>
</mxfile>
